<svg width="1440" height="524" viewBox="0 0 1440 524" fill="none" xmlns="http://www.w3.org/2000/svg">
<g clip-path="url(#clip0_29_1074)">
<g opacity="0.25">
<path d="M1316.86 461.071C930.781 511.183 722.632 683.681 877.69 771.869C1049 869.254 2120.21 854.461 2243.12 830.715C2366.04 806.969 1361.17 730.982 1498.29 641.375C1650.58 541.916 2415.28 541.779 2394.45 499.31C2373.98 457.522 1763.14 403.152 1316.86 461.071Z" stroke="#661E71" stroke-width="5" stroke-miterlimit="10"/>
<path d="M1196 448.816C743.461 492.486 547.109 701.286 746.591 799.654C972.679 911.069 2136.46 869.773 2309.22 852.141C2458.14 836.965 1491.43 734.776 1607 626.5C1732.44 508.863 2422.14 489.757 2370.62 462.463C2315.24 433.204 1727.03 397.694 1196 448.816Z" stroke="#661E71" stroke-width="5" stroke-miterlimit="10"/>
<path d="M1075.13 436.589C556.867 473.682 371.953 718.865 615.496 827.413C896.841 952.966 2143.45 884.731 2375.32 873.595C2543.86 865.407 1622.54 738.708 1715.6 611.572C1814.91 475.974 2444.54 436.207 2346.79 425.808C2273.83 407.384 1692.84 392.345 1075.13 436.589Z" stroke="#661E71" stroke-width="5" stroke-miterlimit="10"/>
<path d="M954.264 424.252C370.626 455.04 197.148 736.333 484.753 855.117C821.838 994.535 2166.93 919.395 2441.77 894.966C2613.92 879.654 1754.48 742.583 1824.54 596.669C1898.34 443.112 2459.47 383.393 2323.31 389.043C2223.75 382.301 1658.53 387.159 954.264 424.252Z" stroke="#661E71" stroke-width="5" stroke-miterlimit="10"/>
<path d="M833.384 412.079C184.617 436.644 22.5753 753.91 353.279 882.984C746.224 1036.38 2159.09 935.88 2507.49 916.474C2703 905.557 1886.05 746.65 1932.88 581.876C1981.04 410.359 2486.66 337.566 2299.1 352.387C2178.95 361.858 1624.45 382.11 833.384 412.079Z" stroke="#661E71" stroke-width="5" stroke-miterlimit="10"/>
<path d="M712.65 399.823C-1.36743 418.302 -151.851 771.433 222.192 910.742C671.357 1078.08 2153.45 923.133 2573.72 938.036C2791.5 945.706 2018.49 750.744 2041.61 567.082C2065.68 377.661 2505.1 283.469 2275.28 315.785C2132.26 335.764 1590.51 377.142 712.65 399.823Z" stroke="#661E71" stroke-width="5" stroke-miterlimit="10"/>
<path d="M591.789 387.596C-187.357 399.988 -326.164 788.82 90.9781 938.528C596.605 1119.76 2158.63 934.379 2639.7 959.353C2875.06 971.581 2150.81 754.647 2150.08 552.098C2149.36 344.663 2519.67 229.482 2251.33 278.938C2083.03 309.972 1556.57 372.23 591.789 387.596Z" stroke="#661E71" stroke-width="5" stroke-miterlimit="10"/>
<path d="M470.895 375.341C-373.381 381.728 -500.149 806.37 -40.1488 966.313C521.579 1161.44 2165.11 945.215 2705.77 980.806C2959.3 997.483 2283.45 758.578 2258.77 537.223C2233.61 311.882 2533.25 175.93 2227.47 242.228C2032.92 284.37 1522.36 367.399 470.895 375.341Z" stroke="#661E71" stroke-width="5" stroke-miterlimit="10"/>
<path d="M350.039 363.085C-559.367 363.495 -674.698 823.837 -171.238 994.098C446.83 1203.12 2172.7 955.886 2771.87 1002.29C3044.19 1023.38 2416.25 762.589 2367.37 522.374C2317.89 279.074 2546.63 122.624 2203.64 205.517C1982.37 258.931 1488.54 362.594 350.039 363.085Z" stroke="#661E71" stroke-width="5" stroke-miterlimit="10"/>
<path d="M229.167 350.858C-745.97 345.399 -848.902 841.279 -302.343 1021.86C371.826 1244.74 2181.25 966.259 2837.96 1023.69C3129.54 1049.18 2549.03 766.52 2475.96 507.472C2402.28 246.213 2560.23 69.3741 2179.68 168.752C1931.68 233.576 1454.47 357.846 229.167 350.858Z" stroke="#661E71" stroke-width="5" stroke-miterlimit="10"/>
<path d="M108.298 338.603C-931.607 327.113 -1023.34 858.72 -433.445 1049.64C297.547 1286.39 2191 976.603 2904.05 1045.14C3215.25 1075 2682.06 770.478 2584.67 492.597C2486.79 213.351 2573.35 16.2599 2155.85 132.042C1880.88 208.274 1420.28 353.124 108.298 338.603Z" stroke="#661E71" stroke-width="5" stroke-miterlimit="10"/>
<path d="M-12.5751 326.347C-1117.73 308.934 -1197.07 876.16 -564.551 1077.43C223.023 1328.01 2200.26 986.865 2970.14 1066.51C3301.09 1100.79 2814.96 774.462 2693.25 477.638C2571.3 180.433 2586.71 -36.8828 2132.01 95.248C1830.19 182.999 1386.08 348.401 -12.5751 326.347Z" stroke="#661E71" stroke-width="5" stroke-miterlimit="10"/>
<path d="M-133.429 314.12C-1303.95 290.784 -1371.13 893.711 -695.638 1105.19C148.518 1369.64 2210.51 997.101 3036.37 1088.02C3387.42 1126.67 2948.13 778.366 2801.98 462.819C2655.83 147.271 2600.09 -89.8599 2108.18 58.5109C1779.41 157.752 1351.91 343.734 -133.429 314.12Z" stroke="#661E71" stroke-width="5" stroke-miterlimit="10"/>
<path d="M-254.296 301.864C-1490.19 272.632 -1545.21 911.014 -826.858 1132.97C74.0001 1411.37 2221.23 1007.42 3102.34 1109.47C3473.74 1152.51 3081.15 782.295 2910.57 447.943C2740.46 114.763 2613.57 -142.838 2084.23 21.8542C1728.6 132.532 1317.72 339.039 -254.296 301.864Z" stroke="#661E71" stroke-width="5" stroke-miterlimit="10"/>
<path d="M-375.186 289.61C-1676.45 254.482 -1717.38 928.128 -957.62 1160.76C2.22868 1452.48 2232.64 1017.46 3168.78 1130.9C3560.52 1178.36 3214.64 786.226 3019.5 433.068C2825.43 81.9017 2627.39 -195.843 2060.73 -14.8832C1677.78 107.313 1283.27 334.4 -375.186 289.61Z" stroke="#661E71" stroke-width="5" stroke-miterlimit="10"/>
<path d="M-496.041 277.382C-1862.68 236.359 -1891.57 945.569 -1089.07 1188.49C-72.8789 1494.18 2243.37 1027.45 3234.52 1152.29C3646.85 1204.15 3347.45 790.102 3127.74 418.083C2909.84 48.9031 2640.53 -248.903 2036.55 -51.7303C1626.99 82.0927 1248.97 329.732 -496.041 277.382Z" stroke="#661E71" stroke-width="5" stroke-miterlimit="10"/>
<path d="M-616.91 265.127C-2049.52 218.236 -2065.89 963.038 -1220.17 1216.3C-147.64 1535.64 2254.69 1037.77 3300.61 1173.78C3734.01 1230.08 3483.48 794.005 3236.33 403.29C2997.36 16.0411 2654.01 -301.772 2012.71 -88.3316C1576.19 56.9004 1214.54 325.092 -616.91 265.127Z" stroke="#661E71" stroke-width="5" stroke-miterlimit="10"/>
<path d="M-737.771 252.873C-2235.75 200.714 -2240.2 980.506 -1351.26 1244.09C-222.393 1577.46 2266.25 1047.92 3366.84 1195.23C3820.33 1255.93 3616.04 797.936 3345.05 388.415C3081.52 -16.8204 2667.51 -354.694 1988.76 -125.069C1525.39 31.7085 1179.64 321.217 -737.771 252.873Z" stroke="#661E71" stroke-width="5" stroke-miterlimit="10"/>
<path d="M-858.661 240.644C-2422.01 182.453 -2414.31 997.947 -1482.39 1271.87C-297.295 1619.11 2277.91 1058.05 3432.91 1216.68C3907.11 1281.81 3748.68 801.811 3453.61 373.539C3165.65 -49.683 2681.09 -407.645 1964.9 -161.78C1474.2 6.65202 1145.31 316.413 -858.661 240.644Z" stroke="#661E71" stroke-width="5" stroke-miterlimit="10"/>
<path d="M-979.525 228.39C-2608.25 164.194 -2588.74 1015.42 -1613.48 1299.63C-372.051 1660.68 2289.83 1068.2 3499 1238.11C3994.04 1307.68 3881.96 805.824 3562.21 358.746C3249.2 -82.4628 2692.65 -460.787 1941.07 -198.436C1422.32 -18.8676 1111 311.582 -979.525 228.39Z" stroke="#661E71" stroke-width="5" stroke-miterlimit="10"/>
</g>
</g>
<defs>
<clipPath id="clip0_29_1074">
<rect width="1440" height="524" fill="white"/>
</clipPath>
</defs>
</svg>
